<?xml version="1.0" encoding="utf-8"?>
<!-- Generator: Adobe Illustrator 27.5.0, SVG Export Plug-In . SVG Version: 6.00 Build 0)  -->
<svg version="1.1" xmlns="http://www.w3.org/2000/svg" xmlns:xlink="http://www.w3.org/1999/xlink" x="0px" y="0px"
	 viewBox="0 0 1000 1000" style="enable-background:new 0 0 1000 1000;" xml:space="preserve">

<g id="object">
	<g>
		<g>
			<g>
				<path d="M281.508,796.283c-4.602,0-8.777-1.297-12.206-3.858c-5.413-4.043-8.273-10.76-8.053-18.912l11.33-419.032
					c0.456-16.842,14.112-34.87,30.443-40.188l406.462-132.357c8.121-2.644,15.654-1.812,21.214,2.341
					c5.413,4.042,8.273,10.76,8.053,18.912l-11.329,419.032c-0.457,16.842-14.114,34.87-30.444,40.188L290.516,794.766
					C287.402,795.78,284.372,796.283,281.508,796.283z M718.484,181.865c-2.711,0-5.588,0.479-8.552,1.444L303.47,315.667
					c-15.797,5.144-29.006,22.573-29.446,38.852l-11.33,419.032c-0.207,7.67,2.447,13.963,7.473,17.716
					c5.174,3.864,12.239,4.617,19.901,2.124L696.53,661.034c15.796-5.144,29.006-22.573,29.447-38.853l11.329-419.031l0.722,0.019
					l-0.722-0.019c0.207-7.67-2.447-13.962-7.473-17.716C726.661,183.066,722.779,181.865,718.484,181.865z"/>
			</g>
		</g>
		<g>
			<g>
				<path d="M257.742,785.052c-5.371,0-10.133-1.668-13.802-4.91c-5.234-4.626-7.594-11.862-6.646-20.377l47.808-429.33
					c1.919-17.25,17.097-34.534,33.832-38.53l416.451-99.41c8.163-1.948,15.506-0.505,20.674,4.064
					c5.235,4.626,7.595,11.862,6.647,20.378l-47.807,429.331c-1.92,17.25-17.098,34.534-33.833,38.529l-416.451,99.411
					C262.244,784.772,259.941,785.052,257.742,785.052z M742.25,193.118c-2.083,0-4.269,0.266-6.524,0.805l-416.451,99.41
					c-16.182,3.863-30.858,20.58-32.715,37.264l-47.808,429.331c-0.894,8.027,1.294,14.816,6.16,19.115
					c4.8,4.243,11.675,5.57,19.362,3.736l416.451-99.411c16.182-3.862,30.858-20.579,32.717-37.264l47.807-429.331
					c0.894-8.027-1.294-14.816-6.16-19.115C751.695,194.661,747.266,193.118,742.25,193.118z"/>
			</g>
		</g>
		<g>
			<g>
				<path d="M235.185,771.39c-6.226,0-11.608-2.104-15.455-6.113c-5.01-5.219-6.823-12.954-5.104-21.781l85.045-436.629
					c3.416-17.54,20.046-33.924,37.069-36.524l423.53-64.677c8.149-1.242,15.244,0.802,20.001,5.757
					c5.01,5.219,6.823,12.954,5.104,21.781L700.33,669.834c-3.417,17.539-20.047,33.924-37.07,36.524l-423.53,64.677
					C238.174,771.272,236.657,771.39,235.185,771.39z M764.806,206.803c-1.394,0-2.834,0.111-4.312,0.337l-423.53,64.677
					c-16.452,2.512-32.526,18.364-35.832,35.337l-85.045,436.628c-1.624,8.337,0.051,15.605,4.716,20.464
					c4.413,4.595,11.051,6.483,18.702,5.316l423.53-64.677c16.452-2.513,32.526-18.365,35.833-35.336l85.044-436.629l0.731,0.143
					l-0.731-0.143c1.624-8.337-0.052-15.604-4.716-20.463C775.636,208.748,770.626,206.803,764.806,206.803z"/>
			</g>
		</g>
		<g>
			<g>
				<path d="M214.059,755.339c-7.174,0-13.221-2.619-17.178-7.484c-4.664-5.736-5.911-14.156-3.42-23.1l122.775-440.779
					c4.932-17.704,22.931-33.036,40.122-34.176l427.555-28.369c8.059-0.535,14.88,2.098,19.203,7.416
					c4.665,5.736,5.912,14.156,3.421,23.101L683.763,692.725c-4.932,17.704-22.931,33.036-40.122,34.177l-427.555,28.369
					C215.401,755.317,214.725,755.339,214.059,755.339z M785.935,222.876c-0.631,0-1.271,0.021-1.921,0.064L356.46,251.308
					c-16.602,1.101-33.992,15.938-38.765,33.074L194.919,725.161c-2.358,8.465-1.214,16.389,3.136,21.74
					c4.006,4.927,10.394,7.361,17.93,6.861l427.555-28.369c16.602-1.102,33.993-15.939,38.766-33.074l122.775-440.778
					c2.358-8.466,1.214-16.389-3.137-21.74C798.283,225.298,792.648,222.876,785.935,222.876z"/>
			</g>
		</g>
		<g>
			<g>
				<path d="M622.973,746.246c-0.225,0-0.447-0.002-0.671-0.007l-428.401-9.282c-7.925-0.172-14.422-3.382-18.293-9.039
					c-4.333-6.333-4.915-15.193-1.596-24.311l160.724-441.65c6.371-17.51,25.232-31.502,42.294-31.502
					c0.224,0,0.446,0.002,0.669,0.007l428.401,9.282c7.925,0.172,14.422,3.382,18.293,9.039c4.333,6.333,4.915,15.194,1.596,24.311
					l-0.721-0.263l0.721,0.263l-160.724,441.65C658.893,732.253,640.033,746.246,622.973,746.246z M377.022,231.991
					c-16.463,0-34.676,13.543-40.844,30.491l-160.724,441.65c-3.147,8.646-2.629,16.999,1.421,22.918
					c3.583,5.237,9.641,8.21,17.06,8.371l428.4,9.282c16.664,0.367,35.237-13.315,41.487-30.484l160.724-441.65
					c3.147-8.646,2.629-17-1.421-22.919c-3.583-5.237-9.641-8.21-17.06-8.371l-428.399-9.282
					C377.452,231.993,377.236,231.991,377.022,231.991z"/>
			</g>
		</g>
		<g>
			<g>
				<path d="M602.853,764.374c-1.178,0-2.343-0.064-3.497-0.193l-425.961-48.025c-7.743-0.873-13.879-4.646-17.277-10.624
					c-3.938-6.925-3.807-16.179,0.358-25.389l198.605-439.135c7.978-17.641,28.414-30.411,45.563-28.486l425.961,48.025
					c7.743,0.874,13.879,4.646,17.277,10.626c3.936,6.925,3.806,16.178-0.359,25.387l-0.711-0.322l0.711,0.322L644.919,735.694
					C637.478,752.147,619.192,764.374,602.853,764.374z M397.112,213.885c-15.754,0-33.407,11.836-40.61,27.765L157.897,680.785
					c-3.957,8.75-4.111,17.488-0.424,23.975c3.145,5.533,8.862,9.029,16.097,9.845l425.962,48.025
					c16.521,1.864,36.247-10.509,43.966-27.579l198.605-439.135c3.957-8.749,4.112-17.487,0.424-23.973
					c-3.146-5.534-8.862-9.031-16.097-9.847l-425.96-48.025C399.364,213.946,398.242,213.885,397.112,213.885z"/>
			</g>
		</g>
		<g>
			<g>
				<path d="M581.38,781.188c-2.199,0-4.358-0.209-6.45-0.646l-420.154-87.594c-7.517-1.567-13.257-5.891-16.163-12.176
					c-3.47-7.506-2.582-17.092,2.438-26.301l236.122-433.15c9.487-17.403,30.972-28.689,47.896-25.163l420.155,87.595
					c7.516,1.567,13.256,5.891,16.162,12.176c3.47,7.505,2.582,17.092-2.438,26.301L622.826,755.38
					C614.511,770.632,596.978,781.188,581.38,781.188z M418.569,197.09c-15.029,0-31.956,10.225-40.004,24.989l-236.121,433.15
					c-4.779,8.765-5.65,17.832-2.392,24.879c2.69,5.818,8.035,9.828,15.049,11.291l420.154,87.594
					c16.284,3.394,37.006-7.536,46.181-24.371l236.122-433.149l0.696,0.379l-0.696-0.379c4.779-8.765,5.65-17.833,2.392-24.88
					c-2.69-5.818-8.034-9.828-15.048-11.29l-420.155-87.595C422.744,197.291,420.674,197.09,418.569,197.09z"/>
			</g>
		</g>
		<g>
			<g>
				<path d="M558.694,796.536c-3.299,0-6.508-0.446-9.524-1.384L138.247,667.441c-7.25-2.253-12.561-7.117-14.951-13.696
					c-2.93-8.063-1.243-17.913,4.628-27.024L400.9,203.091c10.969-17.025,33.36-26.692,49.931-21.542l410.922,127.712
					c7.25,2.253,12.561,7.117,14.951,13.696c2.93,8.063,1.243,17.913-4.628,27.024L599.1,773.61
					C590.129,787.535,573.51,796.536,558.694,796.536z M441.246,181.761c-14.267,0-30.311,8.722-38.996,22.2L129.275,627.592
					c-5.595,8.685-7.224,18.017-4.467,25.604c2.214,6.095,7.157,10.609,13.917,12.71l410.922,127.711
					c15.915,4.947,37.497-4.418,48.102-20.877l272.976-423.631l0.675,0.436l-0.675-0.436c5.595-8.684,7.225-18.016,4.467-25.603
					c-2.214-6.095-7.157-10.609-13.917-12.71L450.353,183.084C447.471,182.188,444.401,181.761,441.246,181.761z"/>
			</g>
		</g>
		<g>
			<g>
				<path d="M534.941,810.268c-4.486,0-8.808-0.78-12.711-2.427L124.003,639.758c-6.95-2.933-11.797-8.328-13.645-15.19
					c-2.313-8.584,0.204-18.617,6.906-27.525L426.122,186.5c12.415-16.505,35.588-24.419,51.648-17.639l398.227,168.082
					c6.95,2.933,11.795,8.328,13.645,15.19c2.313,8.585-0.204,18.617-6.905,27.525v0.001L573.879,790.201
					C564.479,802.696,548.916,810.268,534.941,810.268z M465.003,168.049c-13.454,0-28.479,7.338-37.577,19.432L118.567,598.025
					c-6.397,8.503-8.815,18.023-6.633,26.119c1.715,6.366,6.227,11.377,12.703,14.111l398.227,168.082
					c15.417,6.505,37.713-1.172,49.709-17.117l308.86-410.544l0.652,0.491l-0.652-0.491c6.396-8.503,8.814-18.023,6.632-26.119
					c-1.715-6.366-6.227-11.377-12.703-14.11L477.135,170.365C473.413,168.793,469.287,168.049,465.003,168.049z"/>
			</g>
		</g>
		<g>
			<g>
				<path d="M510.267,822.244c-5.76,0-11.262-1.22-15.982-3.794L112.223,610.047c-6.616-3.608-10.963-9.525-12.24-16.661
					c-1.621-9.056,1.749-19.181,9.246-27.779l343.464-393.878c13.816-15.843,37.602-21.889,53.023-13.477l382.062,208.402
					c6.616,3.609,10.963,9.526,12.24,16.662c1.622,9.056-1.749,19.181-9.246,27.778l-0.625-0.544l0.625,0.544L547.308,804.973
					C537.72,815.967,523.33,822.244,510.267,822.244z M489.69,156.094c-12.575,0-26.471,6.083-35.749,16.724L110.478,566.696
					c-7.165,8.217-10.397,17.839-8.864,26.398c1.187,6.631,5.236,12.135,11.402,15.498l382.063,208.403
					c14.779,8.06,37.649,2.179,50.98-13.11l343.464-393.879c7.166-8.217,10.396-17.838,8.864-26.397
					c-1.188-6.631-5.237-12.135-11.402-15.498L504.922,159.707C500.428,157.256,495.184,156.094,489.69,156.094z"/>
			</g>
		</g>
		<g>
			<g>
				<path d="M484.821,832.335c-7.118,0-13.869-1.781-19.301-5.502l-362.446-248.36c-6.248-4.282-10.058-10.714-10.729-18.113
					c-0.858-9.462,3.377-19.58,11.619-27.76L480.45,158.946c15.153-15.037,39.39-19.108,54.03-9.077l362.446,248.359
					c6.248,4.281,10.058,10.714,10.729,18.112c0.858,9.462-3.376,19.581-11.619,27.76L519.55,817.755
					C510.019,827.214,496.892,832.335,484.821,832.335z M515.155,146.026c-11.62,0-24.297,4.962-33.519,14.113L105.149,533.794
					c-7.885,7.826-11.941,17.454-11.128,26.414c0.625,6.89,4.178,12.884,10.005,16.876l362.446,248.36
					c14.005,9.597,37.285,5.613,51.893-8.883l376.486-373.655l0.593,0.597l-0.593-0.597c7.885-7.826,11.941-17.454,11.129-26.415
					c-0.625-6.89-4.179-12.883-10.006-16.876L533.529,151.257C528.365,147.718,521.94,146.026,515.155,146.026z"/>
			</g>
		</g>
		<g>
			<g>
				<path d="M458.748,840.42c-8.55,0-16.614-2.477-22.615-7.563L96.713,545.224c-5.847-4.955-9.081-11.896-9.105-19.544
					c-0.031-9.786,5.068-19.792,13.989-27.451l407.62-349.918c16.412-14.09,40.93-16.095,54.651-4.467l339.421,287.632
					c5.847,4.955,9.081,11.896,9.105,19.545c0.031,9.786-5.068,19.792-13.989,27.45L490.784,828.39
					C481.549,836.317,469.746,840.42,458.748,840.42z M541.249,137.966c-10.591,0-21.987,3.973-30.92,11.642l-407.62,349.918
					c-8.541,7.332-13.422,16.863-13.393,26.149c0.024,7.14,3.042,13.62,8.501,18.247l339.421,287.633
					c13.105,11.107,36.628,9.106,52.434-4.461l407.62-349.918l0.556,0.648l-0.556-0.648c8.541-7.332,13.422-16.863,13.393-26.148
					c-0.022-7.14-3.042-13.621-8.501-18.247L562.763,145.148C557.065,140.319,549.394,137.966,541.249,137.966z"/>
			</g>
		</g>
		<g>
			<g>
				<path d="M432.184,846.385c-10.036,0-19.464-3.331-25.853-9.983L93.271,510.506c-5.409-5.631-8.022-13.073-7.354-20.953
					c0.848-10.015,6.795-19.797,16.317-26.836l436.565-322.741c17.591-13.003,42.206-12.86,54.87,0.323l313.059,325.897
					c5.41,5.631,8.022,13.072,7.354,20.952c-0.848,10.015-6.795,19.796-16.317,26.836l-0.516-0.698l0.516,0.698L461.201,836.726
					C452.484,843.169,442.04,846.385,432.184,846.385z M567.83,132.03c-9.491,0-19.573,3.111-28,9.341L103.265,464.112
					c-9.121,6.743-14.814,16.069-15.62,25.587c-0.624,7.376,1.819,14.338,6.878,19.605l313.059,325.897
					c12.08,12.575,35.67,12.635,52.588,0.129l436.565-322.742c9.122-6.743,14.815-16.069,15.62-25.587
					c0.624-7.375-1.819-14.338-6.878-19.605L592.418,141.5C586.355,135.189,577.392,132.03,567.83,132.03z"/>
			</g>
		</g>
		<g>
			<g>
				<path d="M405.274,850.129c-11.558,0-22.381-4.367-28.939-12.762L92.869,474.54c-4.931-6.313-6.873-14.243-5.466-22.328
					c1.764-10.134,8.529-19.578,18.56-25.91l463.034-292.231c18.673-11.783,43.195-9.423,54.669,5.262l283.465,362.827
					c4.931,6.313,6.873,14.243,5.466,22.328c-1.764,10.134-8.529,19.578-18.56,25.909L431.003,842.63
					C423.004,847.677,413.933,850.129,405.274,850.129z M594.752,128.317c-8.337,0-17.09,2.37-24.814,7.245L106.905,427.793
					c-9.612,6.066-16.088,15.077-17.766,24.722c-1.32,7.588,0.497,15.025,5.12,20.941l283.465,362.827
					c10.93,13.992,34.409,16.172,52.339,4.857l463.034-292.231l0.471,0.745l-0.471-0.745c9.612-6.066,16.087-15.077,17.766-24.722
					c1.32-7.588-0.497-15.026-5.12-20.941L622.277,140.419C616.056,132.454,605.766,128.317,594.752,128.317z"/>
			</g>
		</g>
		<g>
			<g>
				<path d="M378.161,851.557c-13.098,0-25.312-5.606-31.793-15.894L95.605,437.568c-4.409-6.999-5.627-15.399-3.428-23.654
					c2.699-10.134,10.235-19.128,20.679-24.674l486.741-258.519c19.636-10.43,43.879-5.804,54.034,10.318l250.764,398.095
					c4.408,6.999,5.625,15.399,3.427,23.653c-2.699,10.135-10.235,19.128-20.679,24.675l-0.419-0.79l0.419,0.79L400.404,845.98
					C393.298,849.754,385.587,851.557,378.161,851.557z M621.868,126.921c-7.147,0-14.576,1.739-21.432,5.38L113.694,390.82
					c-10.005,5.314-17.218,13.899-19.789,23.555c-2.068,7.768-0.927,15.667,3.214,22.241L347.882,834.71
					c9.666,15.346,32.852,19.692,51.684,9.69l486.74-258.518c10.005-5.314,17.218-13.9,19.79-23.555
					c2.068-7.768,0.927-15.666-3.213-22.24L652.118,141.992C645.971,132.232,634.354,126.921,621.868,126.921z"/>
			</g>
		</g>
		<g>
			<g>
				<path d="M351.008,850.587c-14.643,0-28.213-7.075-34.342-19.366L101.552,399.845c-3.834-7.688-4.271-16.533-1.232-24.906
					c3.632-10.009,11.881-18.445,22.633-23.143l507.42-221.766c20.488-8.957,44.247-2.025,52.962,15.45l215.113,431.376
					c3.834,7.688,4.271,16.533,1.233,24.907c-3.632,10.009-11.881,18.445-22.633,23.143l-0.363-0.832l0.363,0.832L369.628,846.672
					C363.55,849.328,357.183,850.587,351.008,850.587z M649.018,127.924c-5.938,0-12.064,1.212-17.918,3.77l-507.42,221.765
					c-10.297,4.5-18.189,12.555-21.652,22.098c-2.868,7.902-2.46,16.239,1.15,23.477L318.29,830.411
					c8.29,16.623,30.992,23.172,50.611,14.596l507.419-221.766c10.297-4.5,18.189-12.555,21.652-22.099
					c2.868-7.902,2.46-16.239-1.15-23.477L681.71,146.29C675.895,134.628,662.98,127.924,649.018,127.924z"/>
			</g>
		</g>
		<g>
			<g>
				<path d="M323.99,847.148c-16.189,0-31.037-8.79-36.526-23.154L110.767,361.64c-3.201-8.374-2.801-17.628,1.124-26.059
					c4.544-9.758,13.432-17.535,24.385-21.336l524.817-182.162c21.204-7.363,44.283,1.891,51.443,20.624l176.698,462.354
					c3.201,8.374,2.802,17.629-1.125,26.059c-4.543,9.757-13.431,17.534-24.384,21.335l-0.302-0.871l0.302,0.871L338.907,844.618
					C333.961,846.335,328.913,847.148,323.99,847.148z M676.028,131.394c-4.728,0-9.577,0.781-14.33,2.431L136.881,315.987
					c-10.485,3.639-18.983,11.065-23.319,20.372c-3.714,7.974-4.094,16.718-1.074,24.622l176.697,462.354
					c6.808,17.812,28.838,26.578,49.117,19.54L863.12,660.714c10.484-3.639,18.982-11.064,23.318-20.371
					c3.714-7.974,4.095-16.719,1.075-24.623L710.815,153.365C705.603,139.729,691.466,131.394,676.028,131.394z"/>
			</g>
		</g>
		<g>
			<g>
				<path d="M297.302,841.184c-17.74,0-33.744-10.766-38.299-27.234L123.275,323.234c-2.504-9.054-1.21-18.67,3.642-27.078
					c5.414-9.381,14.857-16.408,25.907-19.278l538.697-139.926c21.787-5.658,43.976,5.916,49.476,25.799l135.728,490.716
					c2.503,9.053,1.21,18.669-3.642,27.078c-5.414,9.381-14.857,16.408-25.907,19.278l-0.236-0.906l0.236,0.906L308.479,839.749
					C304.738,840.721,300.982,841.184,297.302,841.184z M702.706,137.388c-3.527,0-7.126,0.444-10.714,1.377L153.295,278.691
					c-10.568,2.745-19.592,9.452-24.757,18.401c-4.6,7.97-5.828,17.077-3.458,25.643l135.728,490.716
					c5.23,18.905,26.414,29.889,47.2,24.486l538.697-139.926c10.568-2.745,19.592-9.452,24.757-18.402
					c4.6-7.97,5.828-17.077,3.458-25.643L739.192,163.25C734.865,147.609,719.62,137.388,702.706,137.388z"/>
			</g>
		</g>
		<g>
			<g>
				<path d="M271.158,832.658c-19.305,0-36.306-13.017-39.63-31.577l-92.443-516.163c-1.739-9.713,0.5-19.629,6.306-27.921
					c6.317-9.022,15.969-15.062,27.179-17.008l548.842-95.302c22.215-3.857,43.317,10.021,47.062,30.933l92.443,516.163
					c1.739,9.714-0.5,19.63-6.306,27.922c-6.316,9.021-15.969,15.062-27.178,17.008l-548.843,95.302
					C276.091,832.449,273.604,832.658,271.158,832.658z M728.844,145.944c-2.342,0-4.717,0.2-7.108,0.615l-548.842,95.302
					c-10.709,1.859-19.923,7.622-25.948,16.226c-5.514,7.875-7.641,17.284-5.992,26.496l92.443,516.163
					c3.561,19.887,23.688,33.07,44.865,29.396l548.843-95.302l0.163,0.936l-0.163-0.936c10.708-1.859,19.922-7.622,25.947-16.226
					c5.514-7.875,7.641-17.284,5.992-26.496l-92.443-516.163C763.443,158.315,747.245,145.944,728.844,145.944z"/>
			</g>
		</g>
		<g>
			<g>
				<path d="M245.74,821.55c-9.544,0-18.684-3.209-26.071-9.218c-8.356-6.797-13.466-16.362-14.391-26.932l-47.105-538.408
					c-0.925-10.57,2.448-20.877,9.497-29.022c7.041-8.137,16.91-13.142,27.788-14.094l555.06-48.561
					c10.879-0.947,21.466,2.264,29.812,9.054c8.356,6.798,13.467,16.362,14.392,26.932l47.105,538.408
					c1.907,21.809-14.819,41.15-37.285,43.116h0.001l-555.061,48.562C248.23,821.496,246.982,821.55,245.74,821.55z
					 M754.258,157.082c-1.185,0-2.377,0.052-3.573,0.156l-555.06,48.561c-10.374,0.908-19.784,5.679-26.496,13.434
					c-6.704,7.747-9.911,17.546-9.033,27.591l47.105,538.408c0.879,10.045,5.739,19.138,13.686,25.603
					c7.955,6.472,18.056,9.539,28.428,8.628l555.06-48.562c21.406-1.873,37.344-20.277,35.53-41.025L792.8,191.47
					c-0.879-10.045-5.74-19.138-13.687-25.603C772.073,160.14,763.359,157.082,754.258,157.082z"/>
			</g>
		</g>
		<g>
			<g>
				<path d="M778.59,807.855H221.41c-22.56,0-40.914-18.354-40.914-40.914v-557.18c0-22.561,18.354-40.915,40.914-40.915h557.18
					c22.56,0,40.914,18.354,40.914,40.915v557.18C819.504,789.501,801.15,807.855,778.59,807.855z M221.41,170.805
					c-21.48,0-38.955,17.476-38.955,38.956v557.18c0,21.479,17.476,38.955,38.955,38.955h557.18
					c21.479,0,38.955-17.476,38.955-38.955v-557.18c0-21.48-17.476-38.956-38.955-38.956H221.41z"/>
			</g>
		</g>
	</g>
</g>
</svg>
