<?xml version="1.0" encoding="utf-8"?>
<!-- Generator: Adobe Illustrator 27.5.0, SVG Export Plug-In . SVG Version: 6.00 Build 0)  -->
<svg version="1.1" xmlns="http://www.w3.org/2000/svg" xmlns:xlink="http://www.w3.org/1999/xlink" x="0px" y="0px"
	 viewBox="0 0 1000 1000" style="enable-background:new 0 0 1000 1000;" xml:space="preserve">

<g id="object">
	<g>
		<g>
			<g>
				
					
				<path fill="#7C3AED" d="M327.458,697.506
					c-12.884,0.001-23.514-3.121-31.417-9.404c-14.835-11.794-19.351-33.916-13.062-63.974l0.133-0.636L464.612,495.92
					c12.923-9.084,26.281-22.139,36.649-35.819v0l101.368-133.763c20.095-26.518,49.139-48.254,66.121-49.485
					c4.394-0.322,7.858,0.722,10.269,3.096c20.431,20.114,16.412,63.871-11.026,120.053
					c-52.95,108.419-177.195,234.211-276.965,280.412C366.495,691.776,344.91,697.505,327.458,697.506z M286.07,625.437
					c-5.824,28.431-1.672,49.201,12.021,60.087c17.581,13.977,50.095,11.104,91.553-8.096
					c99.184-45.93,222.724-171.03,275.391-278.869c26.776-54.829,31.031-97.205,11.673-116.262c-1.706-1.68-4.298-2.407-7.721-2.158
					c-16.149,1.17-44.145,22.338-63.736,48.189L503.884,462.091c-10.565,13.939-24.189,27.251-37.378,36.523L286.07,625.437z"/>
			</g>
		</g>
		<g>
			<g>
				
					
				<path fill="#7C3AED" d="M318.52,699.481
					c-15.347,0-27.708-3.905-36.372-11.724c-15.315-13.817-18.511-38.734-9.243-72.058l0.171-0.613L464.98,494.16
					c13.669-8.615,28.116-21.489,39.637-35.321L617.258,323.6c22.311-26.787,52.958-47.624,70.198-47.324
					c4.456,0.065,7.83,1.521,10.031,4.328c18.541,23.639,10.717,70.542-21.46,128.682
					C613.839,521.652,479.11,646.08,375.692,686.658C353.913,695.202,334.581,699.481,318.52,699.481z M275.908,617.193
					c-8.705,31.732-5.79,55.277,8.443,68.119c16.76,15.121,48.77,14.512,90.139-1.72
					c102.809-40.339,236.785-164.107,298.656-275.901c31.507-56.926,39.435-102.507,21.752-125.055
					c-1.558-1.985-4.079-3.018-7.491-3.068c-16.082-0.169-45.874,20.028-67.62,46.139L507.146,460.946l-1.265-1.053l1.265,1.053
					c-11.731,14.087-26.461,27.208-40.413,35.999L275.908,617.193z"/>
			</g>
		</g>
		<g>
			<g>
				
					
				<path fill="#7C3AED" d="M310.235,700.987
					c-18.17,0-32.34-4.912-41.917-14.7c-15.733-16.081-17.364-43.97-4.718-80.653l0.204-0.594l201.695-112.753
					c14.365-8.031,29.882-20.604,42.569-34.495l123.999-135.768c24.41-26.728,56.87-46.326,73.906-44.622
					c4.561,0.457,7.873,2.357,9.847,5.646c16.357,27.267,4.478,77.217-32.593,137.042
					c-71.739,115.772-216.8,237.735-323.366,271.876C341.073,697.985,324.434,700.987,310.235,700.987z M266.509,607.3
					c-11.993,35.129-10.557,61.639,4.162,76.684c15.9,16.251,47.214,17.973,88.186,4.846
					c105.928-33.937,250.184-155.271,321.57-270.474c36.4-58.741,48.271-107.442,32.568-133.615
					c-1.408-2.348-3.882-3.715-7.35-4.063c-16.048-1.613-47.36,17.52-71.148,43.566L510.499,460.012l-1.215-1.11l1.215,1.11
					c-12.914,14.141-28.731,26.952-43.392,35.148L266.509,607.3z"/>
			</g>
		</g>
		<g>
			<g>
				
					
				<path fill="#7C3AED" d="M303.284,701.717
					c-21.763,0-38.28-6.084-48.663-18.126c-16.054-18.618-15.853-49.645,0.581-89.726l0.238-0.58l210.745-102.979
					c15.006-7.334,31.558-19.478,45.409-33.319l135.361-135.265c26.795-26.775,59.995-44.568,77.205-41.398
					c4.651,0.857,8.004,3.307,9.697,7.085c13.881,30.989-2.302,83.861-44.397,145.057
					c-81.55,118.557-236.693,236.874-345.838,263.75C328.701,699.89,315.204,701.716,303.284,701.717z M258.012,595.693
					c-15.701,38.578-16.014,68.218-0.898,85.748c15.21,17.638,44.854,21.642,85.719,11.578
					C451.309,666.309,605.589,548.588,686.746,430.6c41.431-60.228,57.507-111.929,44.106-141.845
					c-1.247-2.784-3.7-4.531-7.29-5.193c-15.979-2.94-48.614,14.839-74.279,40.489L513.922,459.316l-1.164-1.164l1.164,1.164
					c-14.098,14.088-30.971,26.461-46.292,33.949L258.012,595.693z"/>
			</g>
		</g>
		<g>
			<g>
				
					
				<path fill="#7C3AED" d="M297.915,701.931
					c-26.215,0-45.587-7.558-56.787-22.369c-16.228-21.458-13.9-55.769,6.728-99.224l0.27-0.57l218.916-91.542
					c15.585-6.517,33.129-18.098,48.136-31.774l1.108,1.217l-1.108-1.217l146.634-133.645
					c28.572-26.042,62.983-42.245,80.067-37.672c4.857,1.299,8.162,4.301,9.56,8.681c11.099,34.784-9.62,90.417-56.842,152.635
					c-91.573,120.647-256.445,234.065-367.53,252.83C316.589,701.052,306.853,701.931,297.915,701.931z M250.562,582.318
					c-19.533,41.41-21.958,75.226-6.808,95.258c14.23,18.818,42.843,25.202,82.763,18.46
					c110.377-18.645,274.319-131.5,365.455-251.574c46.567-61.352,67.097-115.895,56.328-149.644
					c-1.055-3.305-3.5-5.493-7.273-6.502c-15.797-4.23-49.636,11.986-76.999,36.924L517.394,458.886
					c-15.272,13.92-33.161,25.721-49.083,32.377L250.562,582.318z"/>
			</g>
		</g>
		<g>
			<g>
				
					
				<path fill="#7C3AED" d="M294.515,701.75
					c-31.76,0.001-54.615-9.439-66.599-27.671c-15.958-24.279-11.056-63.017,13.8-109.077l0.304-0.564l226.062-78.386
					c16.089-5.579,34.572-16.455,50.71-29.84l157.724-130.821c30.128-24.992,65.59-39.382,82.452-33.467
					c5.112,1.791,8.37,5.411,9.418,10.47c8.006,38.636-17.467,96.839-69.89,159.685C596.758,584.043,422.61,691.238,310.295,701.034
					C304.817,701.512,299.552,701.75,294.515,701.75z M244.309,567.129c-23.99,44.694-28.84,82.02-13.641,105.142
					c13.176,20.049,40.618,28.86,79.34,25.484c111.565-9.731,284.705-116.4,385.959-237.785
					c51.775-62.07,76.997-119.26,69.195-156.908c-0.812-3.921-3.262-6.623-7.281-8.031c-15.874-5.559-49.951,8.579-79.265,32.894
					L520.892,458.747c-16.43,13.626-35.283,24.712-51.73,30.415L244.309,567.129z"/>
			</g>
		</g>
		<g>
			<g>
				
					
				<path fill="#7C3AED" d="M293.48,701.344
					c-0.021,0-0.036,0-0.056,0c-38.61-0.011-65.706-11.887-78.356-34.345c-15.634-27.756-7.871-70.08,21.861-119.177l0.341-0.562
					l232.046-63.466c16.507-4.515,35.86-14.537,53.096-27.498l168.525-126.714c31.955-24.027,67.418-36.145,84.339-28.809
					c5.417,2.348,8.612,6.666,9.242,12.486c4.6,42.518-25.833,103.061-83.496,166.106
					C589.058,601.776,406.252,701.344,293.48,701.344z M239.407,550.089c-28.81,47.795-36.437,88.724-21.469,115.294
					c12.031,21.361,38.134,32.657,75.486,32.668c0.015,0,0.041,0,0.056,0c111.97,0,293.681-99.081,405.111-220.907
					c57.027-62.348,87.153-121.952,82.652-163.53c-0.502-4.641-2.949-7.944-7.277-9.82c-15.649-6.785-50.487,5.438-81.048,28.419
					L524.393,458.928l-0.99-1.315l0.99,1.315c-17.557,13.202-37.316,23.423-54.206,28.042L239.407,550.089z"/>
			</g>
		</g>
		<g>
			<g>
				
					
				<path fill="#7C3AED" d="M295.428,700.942
					c-6.503,0.001-12.779-0.283-18.85-0.862c-37.048-3.534-62.602-18.033-73.896-41.929c-14.931-31.59-3.933-77.538,30.971-129.378
					l0.379-0.564l236.715-46.743c16.826-3.323,36.968-12.338,55.263-24.735L704.94,335.487
					c33.016-22.37,69.051-32.347,85.691-23.725c5.766,2.988,8.88,8.094,9.007,14.766c0.877,46.408-34.698,109.024-97.607,171.795
					C586.398,613.704,409.336,700.931,295.428,700.942z M236.005,531.175c-33.929,50.605-44.708,95.183-30.345,125.569
					c10.771,22.788,35.401,36.64,71.231,40.058c111.475,10.644,301.181-79.443,422.816-200.81
					c62.276-62.14,97.499-123.885,96.638-169.402c-0.103-5.467-2.536-9.473-7.23-11.905c-15.375-7.969-50.77,2.143-82.328,23.527
					L527.858,459.456l-0.924-1.363l0.924,1.363c-18.646,12.635-39.229,21.835-56.471,25.24L236.005,531.175z"/>
			</g>
		</g>
		<g>
			<g>
				
					
				<path fill="#7C3AED" d="M300.547,700.834
					c-14.518,0-28.129-1.209-40.653-3.72c-35.367-7.091-59.234-24.306-69.021-49.786c-13.742-35.772,0.883-85.31,41.176-139.488
					l0.422-0.57l239.917-28.192c17.038-2.002,37.877-9.852,57.172-21.538l188.815-114.334
					c34.336-20.791,69.894-28.297,86.491-18.249c6.158,3.731,9.159,9.729,8.679,17.345
					c-3.166,50.274-44.044,114.657-112.154,176.641C583.912,625.854,414.746,700.834,300.547,700.834z M234.267,510.374
					c-39.279,53.018-53.595,101.215-40.321,135.774c9.361,24.373,32.39,40.88,66.595,47.738
					c110.133,22.079,306.9-57.495,438.633-177.378c67.485-61.413,107.972-124.984,111.087-174.413
					c0.403-6.405-1.987-11.224-7.101-14.323c-15.334-9.287-50.273-1.616-83.078,18.249L531.266,460.357
					c-19.685,11.921-41.006,19.936-58.493,21.991L234.267,510.374z"/>
			</g>
		</g>
		<g>
			<g>
				
					
				<path fill="#7C3AED" d="M309.378,701.371
					c-24.378,0-46.605-2.919-65.858-9.053c-33.612-10.709-55.653-30.779-63.74-58.041c-11.945-40.261,6.696-93.266,52.489-149.251
					l0.471-0.579l241.501-7.8c17.128-0.554,38.554-7.076,58.786-17.895L731.09,352.836c34.829-18.627,70.483-23.734,86.705-12.42
					c6.593,4.598,9.44,11.605,8.235,20.264c-7.53,54.083-53.846,119.883-127.077,180.529
					C581.751,638.27,422.628,701.371,309.378,701.371z M234.344,487.69c-44.738,54.901-62.992,106.604-51.409,145.651
					c7.764,26.169,29.059,45.478,61.584,55.841c107.762,34.33,310.673-33.188,452.334-150.508
					c72.605-60.128,118.499-125.169,125.915-178.448c1.04-7.455-1.269-13.211-6.857-17.109
					c-15.002-10.464-50.022-5.157-83.269,12.623L534.58,461.656l-0.776-1.452l0.776,1.452
					c-20.661,11.049-42.614,17.713-60.231,18.282L234.344,487.69z"/>
			</g>
		</g>
		<g>
			<g>
				
					
				<path fill="#7C3AED" d="M322.361,702.984
					c-36.323,0-68.715-5.594-94.745-17.413c-31.811-14.444-51.872-37.568-58.017-66.872
					c-9.429-44.977,13.611-101.214,64.874-158.352l0.531-0.592l241.308,14.435c17.09,1.028,38.983-4.007,60.068-13.798
					l206.535-95.926c35.031-16.269,70.524-18.851,86.321-6.283c7.06,5.615,9.697,13.761,7.628,23.558
					c-12.205,57.804-64.064,124.632-142.278,183.347C580.017,651.093,432.976,702.983,322.361,702.984z M236.395,463.137
					c-50.178,56.134-72.749,111.116-63.573,154.887c5.918,28.235,25.338,50.556,56.156,64.55
					c104.307,47.363,312.302-6.517,463.632-120.117c77.587-58.244,128.991-124.36,141.035-181.395
					c1.818-8.615-0.354-15.445-6.458-20.301c-14.861-11.824-48.944-9.07-82.883,6.692l-206.539,95.926
					c-21.561,10.014-44.039,15.152-61.65,14.099L236.395,463.137z"/>
			</g>
		</g>
		<g>
			<g>
				
					
				<path fill="#7C3AED" d="M339.689,706.172
					c-50.513,0.003-94.786-9.468-127.33-29.417c-29.985-18.38-47.887-44.834-51.771-76.5c-6.104-49.79,21.679-108.892,78.232-166.42
					l0.596-0.606l239.186,38.5c16.914,2.723,39.142-0.647,60.979-9.245l214.112-84.304c35.481-13.971,69.772-13.926,85.32,0.113
					c7.545,6.812,9.903,16.24,6.818,27.265c-17.186,61.397-74.657,128.817-157.677,184.975
					C578.755,664.534,445.563,706.165,339.689,706.172z M240.573,436.749c-55.438,56.605-82.675,114.504-76.716,163.105
					c3.758,30.635,21.124,56.257,50.221,74.094c99.769,61.154,311.605,22.511,472.233-86.143
					c82.384-55.727,139.37-122.477,156.348-183.135c2.727-9.74,0.703-18.016-5.852-23.934c-14.644-13.22-47.559-13.017-81.91,0.506
					l-214.112,84.304c-22.371,8.809-45.229,12.245-62.707,9.432L240.573,436.749z"/>
			</g>
		</g>
		<g>
			<g>
				
					
				<path fill="#7C3AED" d="M361.093,711.478
					c-66.809,0.004-124.828-14.869-163.168-45.715c-28.12-22.622-43.626-52.768-44.839-87.178
					c-1.925-54.524,30.881-115.979,92.374-173.043l0.671-0.623l234.976,64.363c16.595,4.546,39.002,3.001,61.483-4.233
					l220.645-71.002c35.641-11.47,68.496-8.833,83.706,6.715c8.034,8.215,10.023,19.08,5.749,31.418
					c-22.461,64.822-85.577,132.359-173.163,185.294C577.801,678.956,459.857,711.472,361.093,711.478z M247.029,408.578
					c-60.351,56.228-92.537,116.533-90.653,169.891c1.179,33.425,16.26,62.724,43.611,84.729
					c94.029,75.648,308.383,53.874,477.839-48.541c86.939-52.544,149.54-119.446,171.753-183.554
					c3.839-11.079,2.113-20.775-4.992-28.038c-14.121-14.439-46.408-16.803-80.343-5.884l-220.645,71.002
					c-23.074,7.427-46.17,8.984-63.36,4.275L247.029,408.578z"/>
			</g>
		</g>
		<g>
			<g>
				
					
				<path fill="#7C3AED" d="M385.702,719.436
					c-84.812,0.001-158.324-22.223-201.196-66.94c-26.169-27.294-38.959-61.582-36.987-99.157
					c3.093-58.96,41.099-122.106,107.016-177.805l0.759-0.64l228.535,91.979c16.11,6.484,38.544,6.936,61.543,1.237l225.993-55.979
					c34.977-8.661,66.955-3.375,81.481,13.472c8.379,9.719,9.928,22.52,4.36,36.043c-28.013,68.034-96.764,135.168-188.622,184.187
					C576.826,694.797,475.001,719.435,385.702,719.436z M255.905,378.688c-64.754,54.951-102.065,117.004-105.1,174.824
					c-1.923,36.644,10.552,70.085,36.077,96.706c87.063,90.803,302.455,87.532,480.151-7.291
					c91.198-48.665,159.402-115.197,187.13-182.536c5.144-12.495,3.826-23.782-3.811-32.64
					c-13.72-15.914-44.408-20.794-78.193-12.426l-225.993,55.98l-0.396-1.598l0.396,1.598c-23.664,5.861-46.832,5.358-63.566-1.378
					L255.905,378.688z"/>
			</g>
		</g>
		<g>
			<g>
				
					
				<path fill="#7C3AED" d="M412.041,730.517
					c-103.876,0.003-194.18-32.045-239.737-93.646c-62.381-84.35-24.65-202.085,93.892-292.969l0.853-0.655l219.706,121.278
					c15.467,8.538,37.746,11.146,61.131,7.161l230.014-39.206c34.572-5.896,64.717,1.897,78.661,20.335
					c8.78,11.607,9.695,26.222,2.581,41.153C825.321,564.96,750.99,631.127,655.21,675.502
					C575.295,712.526,489.857,730.514,412.041,730.517z M267.345,347.171c-116.332,89.615-153.476,205.151-92.394,287.742
					c37.843,51.171,108.675,83.315,199.453,90.51c90.988,7.215,190.217-11.58,279.421-52.908
					c95.097-44.059,168.849-109.652,202.346-179.963c6.653-13.966,5.882-27.02-2.236-37.751
					c-12.998-17.189-42.633-24.675-75.482-19.076L548.44,474.932l-0.276-1.623l0.276,1.623c-24.11,4.11-47.171,1.367-63.275-7.524
					L267.345,347.171z"/>
			</g>
		</g>
		<g>
			<g>
				
					
				<path fill="#7C3AED" d="M438.277,745.069
					C315.06,745.069,207.35,700.15,161.52,618.81c-54.727-97.131-6.887-220.929,119.045-308.056l0.962-0.666l208.353,152.175
					c14.648,10.699,36.589,15.633,60.21,13.533l0.146,1.64l-0.146-1.64l232.554-20.664c33.419-2.968,62.276,7.48,75.287,27.274
					c9.065,13.786,9.18,30.385,0.328,46.736c-39.873,73.65-119.682,138.244-218.965,177.222
					C572.511,732.582,503.239,745.068,438.277,745.069z M281.479,314.129C157.735,400.196,110.68,521.872,164.388,617.194
					c33.247,59.008,101.008,100.531,190.798,116.92c89.995,16.425,190.457,5.48,282.904-30.814
					c98.573-38.697,177.765-102.747,217.276-175.725c8.248-15.235,8.182-30.634-0.184-43.36
					c-12.346-18.778-40.029-28.665-72.245-25.803l-232.554,20.663c-24.401,2.17-47.16-2.991-62.443-14.153L281.479,314.129z"/>
			</g>
		</g>
		<g>
			<g>
				
					
				<path fill="#7C3AED" d="M463.581,763.159
					c-44.592,0-88.274-6.084-129.225-18.298c-88.983-26.539-153.615-78.605-181.994-146.608
					c-46.005-110.245,12.43-239.659,145.41-322.032l1.078-0.669l194.339,184.554c13.65,12.965,35.028,20.229,58.75,20.347
					l0.002,1.646l-0.002-1.646l233.47-0.344c0.056,0,0.116,0,0.172,0c32.025,0,59.305,13.124,71.227,34.277
					c9.172,16.273,8.289,35.007-2.488,52.752c-46.134,75.96-131.268,138.338-233.577,171.138
					C569.077,754.842,515.707,763.158,463.581,763.159z M298.425,279.691c-130.787,81.518-188.26,208.897-143.024,317.295
					c27.989,67.074,91.879,118.47,179.896,144.721c88.188,26.3,189.201,23.97,284.441-6.564
					c101.563-32.562,186.039-94.42,231.768-169.713c10.13-16.682,10.994-34.235,2.433-49.426
					c-11.339-20.117-37.523-32.601-68.357-32.601c-0.058,0-0.111,0-0.169,0l-233.47,0.344c-0.056,0-0.114,0-0.169,0
					c-24.455,0-46.625-7.741-60.853-21.252L298.425,279.691z"/>
			</g>
		</g>
		<g>
			<g>
				
					
				<path fill="#7C3AED" d="M484.243,785.188
					c-59.79,0.001-118.113-11.471-170.713-34.117c-86.324-37.163-146.16-99.64-168.491-175.92
					c-36.19-123.624,33.286-258.127,172.885-334.693l1.202-0.66l177.536,218.28c12.471,15.333,33.144,25.391,56.72,27.595
					l232.612,21.745c31.106,2.908,56.171,18.374,67.052,41.372c8.887,18.789,6.715,40.334-5.961,59.111
					c-52.573,77.872-142.823,137.347-247.61,163.176C561.204,780.511,522.425,785.188,484.243,785.188z M318.306,244.007
					c-137.4,75.916-205.748,208.471-170.107,330.219c22.05,75.322,81.229,137.053,166.632,173.821
					c85.539,36.825,186.352,43.868,283.856,19.833c104.005-25.635,193.548-84.617,245.668-161.821
					c12.188-18.051,14.218-37.889,5.714-55.861c-10.376-21.937-34.445-36.703-64.379-39.502l-232.614-21.745
					c-24.45-2.287-45.945-12.782-58.969-28.796L318.306,244.007z"/>
			</g>
		</g>
		<g>
			<g>
				
					
				<path fill="#7C3AED" d="M500.637,810.897
					c-74.339,0.001-146.411-18.807-208.402-55.077c-82.735-48.407-136.883-121.69-152.471-206.351
					c-25.261-137.189,55.657-276.166,201.354-345.828l1.327-0.635l157.846,253.192c11.094,17.795,30.81,30.649,54.09,35.267
					l229.832,45.583c29.543,5.859,52.828,24.039,62.287,48.632c8.389,21.815,4.681,45.751-10.171,65.672
					c-59.157,79.338-154.256,135.188-260.91,153.23C550.433,808.808,525.409,810.897,500.637,810.897z M341.211,207.249
					c-143.504,69.217-223.119,206.332-198.21,341.624c15.411,83.704,69,156.189,150.895,204.105
					c81.983,47.966,181.763,65.14,280.975,48.357c105.827-17.903,200.162-73.287,258.818-151.952
					c14.164-18.996,17.714-41.784,9.738-62.522c-9.05-23.531-31.425-40.946-59.852-46.584l-229.832-45.583
					c-24.17-4.793-44.67-18.19-56.246-36.754L341.211,207.249z"/>
			</g>
		</g>
		<g>
			<g>
				
					
				<path fill="#7C3AED" d="M512.235,840.172
					c-88.21,0-172.883-28.259-241.63-81.229c-78.174-60.232-125.709-144.668-133.855-237.754
					c-13.197-150.852,79.507-293.603,230.685-355.218l1.449-0.59l0.664,1.418l134.513,287.688
					c9.511,20.342,28.034,36.141,50.824,43.347h-0.002l224.988,71.131c27.946,8.836,49.306,29.841,57.136,56.189
					c7.446,25.055,1.916,51.38-15.176,72.224c-65.845,80.304-165.46,131.772-273.304,141.207
					C536.385,839.645,524.277,840.172,512.235,840.172z M367.23,169.613c-148.972,61.386-240.228,202.366-227.2,351.288
					c8.064,92.158,55.149,175.77,132.586,235.433c77.475,59.695,175.378,87.742,275.625,78.968
					c106.965-9.358,205.757-60.391,271.044-140.015c16.387-19.986,21.696-45.207,14.567-69.198
					c-7.519-25.3-28.071-45.482-54.975-53.988l-224.986-71.131c-23.664-7.482-42.912-23.917-52.813-45.091L367.23,169.613z"/>
			</g>
		</g>
		<g>
			<g>
				
					
				<path fill="#7C3AED" d="M518.762,872.853
					c-101.501,0-197.378-39.98-269.973-112.574c-72.595-72.594-112.574-168.473-112.574-269.973
					c0-164.514,104.779-310.246,260.728-362.634l1.56-0.524l109.451,325.817c7.714,22.964,24.804,41.85,46.886,51.814l217.93,98.336
					c26.746,12.069,45.553,35.482,51.597,64.235c5.974,28.407-1.678,57.014-20.989,78.486
					C730.782,826.557,627.043,872.853,518.762,872.853z M396.432,131.32c-153.748,52.381-256.925,196.434-256.925,358.985
					c0,100.621,39.637,195.673,111.61,267.645s167.025,111.61,267.645,111.61c107.349,0,210.196-45.898,282.169-125.926
					c18.601-20.682,25.968-48.24,20.215-75.607c-5.826-27.713-23.953-50.279-49.73-61.911l-217.93-98.336
					c-22.914-10.34-40.648-29.937-48.652-53.767L396.432,131.32z"/>
			</g>
		</g>
	</g>
</g>
</svg>
