<?xml version="1.0" encoding="utf-8"?>
<!-- Generator: Adobe Illustrator 27.5.0, SVG Export Plug-In . SVG Version: 6.00 Build 0)  -->
<svg version="1.1" xmlns="http://www.w3.org/2000/svg" xmlns:xlink="http://www.w3.org/1999/xlink" x="0px" y="0px"
	 viewBox="0 0 1000 1000" style="enable-background:new 0 0 1000 1000;" xml:space="preserve">

<g id="object">
	<g>
		<g>
			<g>
				
					
				<path fill="#7C3AED" d="M400.675,607.059
					c-5.331,0-9.905-1.383-13.273-4.206c-6.139-5.148-7.136-14.338-2.736-25.214l47.682-117.85
					c6.53-16.139,23.758-32.67,41.897-40.199c10.295-4.274,19.688-5.058,26.45-2.203l83.891,35.409
					c5.737,2.421,9.041,7.091,9.557,13.505c1.208,15.033-13.145,35.932-33.383,48.614l-131.571,82.441
					C418.98,603.752,408.922,607.059,400.675,607.059z M491.533,418.734c-4.759,0-10.254,1.234-16.12,3.669
					c-17.445,7.241-33.992,23.084-40.24,38.528l-47.682,117.85c-3.929,9.712-3.265,17.432,1.87,21.738
					c7.543,6.323,22.543,4.072,38.211-5.745l131.572-82.44c22.042-13.811,32.92-33.899,31.966-45.789
					c-0.424-5.282-3.017-8.963-7.705-10.942l-83.891-35.409C497.201,419.218,494.511,418.734,491.533,418.734z"/>
			</g>
		</g>
		<g>
			<g>
				
					
				<path fill="#7C3AED" d="M397.728,621.466
					c-5.019,0-9.412-1.223-12.851-3.737c-6.847-5.004-8.556-14.136-4.814-25.714l41.366-127.956
					c9.564-29.585,48.883-57.524,71.304-50.666l96.287,29.435c6.632,2.028,10.727,6.7,11.841,13.512
					c2.558,15.622-11.311,38.71-32.258,53.703L430.95,608.565C419.148,617.012,407.302,621.466,397.728,621.466z M485.242,415.384
					c-21.302,0-52.841,24.638-60.914,49.613l-41.366,127.956c-3.307,10.226-1.988,18.152,3.712,22.318
					c8.781,6.419,25.861,2.728,42.504-9.183l137.651-98.521c22.867-16.367,33.052-38.355,31.026-50.734
					c-0.928-5.67-4.201-9.402-9.726-11.091l-96.286-29.435C489.795,415.681,487.579,415.384,485.242,415.384z"/>
			</g>
		</g>
		<g>
			<g>
				
					
				<path fill="#7C3AED" d="M395.663,636.754
					c-4.661,0-8.813-1.031-12.192-3.165c-7.508-4.74-10.034-14.002-7.111-26.077l33.395-137.973
					c7.709-31.848,48.397-64.704,73.798-59.596l109.427,22.033c7.639,1.538,12.623,6.19,14.413,13.453
					c4.04,16.398-8.825,41.124-30.592,58.793l-142.824,115.94C420.749,630.9,406.767,636.753,395.663,636.754z M478.028,412.458
					c-23.797,0-58.549,29.86-65.311,57.797l-33.395,137.972c-2.592,10.706-0.54,18.798,5.776,22.787
					c8.591,5.423,26.442,3.439,46.961-13.218l142.823-115.939c23.425-19.016,32.711-42.891,29.554-55.7
					c-1.487-6.035-5.656-9.907-12.056-11.196l-109.427-22.033C481.378,412.612,479.729,412.458,478.028,412.458z"/>
			</g>
		</g>
		<g>
			<g>
				
					
				<path fill="#7C3AED" d="M395.009,653.061
					c-4.317,0.001-8.243-0.87-11.597-2.675c-8.223-4.424-11.651-13.759-9.649-26.286l23.604-147.746
					c5.441-34.06,47.187-72.211,75.718-69.185l123.257,13.065c8.77,0.93,14.758,5.527,17.317,13.295
					c5.548,16.839-6.374,43.688-28.35,63.84L438.447,632.05C423.742,645.535,407.696,653.06,395.009,653.061z M469.84,410.047
					c-26.615,0-64.522,35.843-69.466,66.788l-23.604,147.745c-1.782,11.149,1.09,19.361,8.084,23.124
					c10.043,5.401,29.875,1.964,51.533-17.899l146.862-134.68c23.692-21.726,31.859-47.46,27.516-60.643
					c-2.157-6.546-7.255-10.425-14.746-11.219l-123.257-13.065C471.806,410.097,470.831,410.047,469.84,410.047z"/>
			</g>
		</g>
		<g>
			<g>
				
					
				<path fill="#7C3AED" d="M395.813,670.224
					c-3.942,0-7.601-0.707-10.859-2.169c-9.007-4.041-13.432-13.389-12.46-26.321l11.818-157.095
					c2.723-36.178,45.053-80.089,76.938-79.415l137.697,2.391c10.031,0.174,17.156,4.669,20.604,12.997
					c7.125,17.207-3.598,46.141-25.495,68.798L444.539,644.112C428.486,660.723,410.262,670.224,395.813,670.224z M460.659,408.264
					c-29.824,0-70.754,42.643-73.309,76.604l-11.818,157.094c-0.869,11.559,2.919,19.838,10.668,23.314
					c13.819,6.201,36.909-3.373,56.15-23.279l149.516-154.703c23.898-24.728,30.6-51.676,24.871-65.516
					c-2.949-7.121-9.118-10.965-17.843-11.116l-137.697-2.392C461.018,408.266,460.839,408.264,460.659,408.264z"/>
			</g>
		</g>
		<g>
			<g>
				
					
				<path fill="#7C3AED" d="M398.27,688.148
					c-3.509,0-6.83-0.537-9.896-1.648c-9.875-3.575-15.406-12.865-15.578-26.158l-2.131-165.819
					c-0.49-38.155,42.144-87.922,77.318-90.255l152.646-10.124l0.101,1.519l-0.101-1.519c11.258-0.747,19.905,3.695,24.325,12.51
					c8.914,17.783-0.13,48.053-21.994,73.611L452.446,656.207C435.224,676.339,414.707,688.148,398.27,688.148z M603.094,397.106
					c-0.739,0-1.493,0.025-2.263,0.076l-152.646,10.124c-33.176,2.201-74.937,51.085-74.474,87.178l2.131,165.818
					c0.156,12.108,4.848,20.176,13.569,23.334c15.992,5.788,40.955-6.305,60.721-29.41l150.515-175.942
					c23.515-27.488,28.658-56.155,21.584-70.266C618.638,400.85,612.048,397.106,603.094,397.106z"/>
			</g>
		</g>
		<g>
			<g>
				
					
				<path fill="#7C3AED" d="M402.271,706.671
					c-2.888,0-5.661-0.352-8.282-1.078c-10.845-3.005-17.611-12.155-19.054-25.766l-18.416-173.686
					c-4.236-39.94,38.062-95.997,76.709-101.662l167.981-24.621c12.78-1.873,22.917,2.309,28.53,11.78
					c10.673,18.004,3.35,50.171-17.808,78.224L462.367,668.169C444.436,691.944,420.945,706.671,402.271,706.671z M601.43,381.366
					l0.221,1.507L433.67,407.494c-36.57,5.36-78.135,60.497-74.123,98.327l18.416,173.686c1.322,12.46,7.145,20.466,16.84,23.151
					c18.377,5.096,45.162-9.844,65.133-36.323L609.5,468.029c20.433-27.092,27.679-57.866,17.619-74.836
					c-5.015-8.459-13.829-12.027-25.469-10.32L601.43,381.366z"/>
			</g>
		</g>
		<g>
			<g>
				
					
				<path fill="#7C3AED" d="M408.659,725.769
					c-2.232,0-4.406-0.198-6.514-0.604c-11.94-2.297-20.094-11.211-22.957-25.101l-37.204-180.442
					c-8.551-41.474,32.778-104.096,74.951-113.568l183.551-41.229c14.437-3.243,26.254,0.57,33.271,10.738
					c12.521,18.142,7.214,52.097-12.907,82.573l-146.346,221.67C456.003,707.829,429.877,725.769,408.659,725.769z M600.819,366.311
					l0.334,1.486l-183.551,41.229c-40.013,8.987-80.744,70.659-72.637,109.982L382.17,699.45
					c2.637,12.787,9.743,20.645,20.55,22.725c20.979,4.033,49.455-14.077,69.241-44.047l146.346-221.671
					c19.453-29.466,24.776-62.019,12.943-79.164c-6.357-9.208-16.767-12.492-30.097-9.497L600.819,366.311z"/>
			</g>
		</g>
		<g>
			<g>
				
					
				<path fill="#7C3AED" d="M417.337,745.214
					c-1.389,0-2.759-0.071-4.115-0.217c-13.187-1.413-22.908-9.973-27.368-24.104l-58.655-185.802
					c-5.984-18.956-1.766-44.307,11.572-69.553c14.792-27.997,37.896-49.587,60.297-56.344l199.176-60.073l0.44,1.458l-0.44-1.458
					c16.222-4.891,29.926-1.586,38.596,9.308c14.702,18.472,11.786,53.272-7.257,86.594L489.062,690.899
					C470.404,723.544,441.499,745.211,417.337,745.214z M612.098,349.977c-4.057,0-8.403,0.681-12.973,2.06L399.948,412.11
					c-21.649,6.53-44.059,27.547-58.484,54.85c-12.769,24.171-17.016,49.297-11.36,67.214l58.655,185.803
					c4.133,13.093,12.705,20.698,24.787,21.992c23.767,2.542,53.722-19.077,72.87-52.581l140.521-245.876
					c18.144-31.746,21.236-65.954,7.519-83.186C629.014,353.488,621.302,349.977,612.098,349.977z"/>
			</g>
		</g>
		<g>
			<g>
				
					
				<path fill="#7C3AED" d="M428.52,764.817
					c-0.294,0-0.584-0.003-0.877-0.009c-14.615-0.294-26.119-8.352-32.393-22.687l-82.918-189.456
					c-8.128-18.572-6.346-44.543,4.889-71.254c13.477-32.038,37.383-57.822,62.391-67.29l214.648-81.267
					c18.109-6.857,33.93-4.229,44.548,7.401c16.805,18.407,16.472,54.664-0.83,90.221l-131.73,270.724
					C487.946,738.81,456.106,764.817,428.52,764.817z M594.799,334.278l0.539,1.424L380.69,416.97
					c-24.254,9.183-47.498,34.328-60.661,65.623c-10.913,25.945-12.702,51.041-4.907,68.852L398.04,740.9
					c5.853,13.376,16.111,20.59,29.664,20.863c26.675,0.486,57.81-24.915,75.805-61.897l131.73-270.724
					c16.761-34.445,17.29-69.341,1.32-86.834c-9.717-10.644-24.358-12.991-41.221-6.606L594.799,334.278z"/>
			</g>
		</g>
		<g>
			<g>
				
					
				<path fill="#7C3AED" d="M442.632,784.356
					c-14.813,0-27.132-7.314-34.929-20.841L297.577,572.454c-10.445-18.122-11.276-44.641-2.277-72.756
					c11.5-35.931,35.743-66.06,63.268-78.631l229.72-104.912l0.633,1.385l-0.633-1.385c20.09-9.176,38.261-7.431,51.166,4.913
					c19.339,18.5,21.855,55.155,6.408,93.383L526.267,710.425c-16.7,41.332-49.767,71.687-80.412,73.818
					C444.768,784.318,443.694,784.356,442.632,784.356z M612.434,313.419c-7.119,0-14.826,1.828-22.882,5.507l-229.72,104.912
					c-26.769,12.225-50.385,41.649-61.632,76.789c-8.738,27.3-8.003,52.926,2.016,70.307l110.126,191.061
					c7.853,13.627,20.05,20.252,35.302,19.21c29.527-2.054,61.519-31.628,77.8-71.92l119.594-295.974
					c14.747-36.495,12.46-72.68-5.69-90.041C630.501,316.721,622,313.419,612.434,313.419z"/>
			</g>
		</g>
		<g>
			<g>
				
					
				<path fill="#7C3AED" d="M459.861,803.56
					c-14.568,0-27.25-6.486-36.307-18.759L283.155,594.552c-12.992-17.606-16.636-44.645-9.996-74.184
					c8.755-38.945,33.405-74.309,62.798-90.092L580.07,299.187c21.805-11.708,43.118-11.076,58.473,1.729
					c21.769,18.154,27.458,55.841,14.492,96.012L549.321,718.265c-14.318,44.361-47.621,79.146-80.985,84.591
					C465.451,803.328,462.622,803.56,459.861,803.56z M580.791,300.529l0.721,1.341L337.398,432.959
					c-28.649,15.384-52.698,49.957-61.267,88.078c-6.446,28.676-2.993,54.812,9.474,71.707l140.399,190.249
					c10.207,13.831,24.676,19.658,41.84,16.859c32.284-5.27,64.596-39.203,78.577-82.522l103.714-321.337
					c12.582-38.982,7.266-75.384-13.543-92.737c-14.565-12.146-34.126-12.638-55.081-1.384L580.791,300.529z"/>
			</g>
		</g>
		<g>
			<g>
				
					
				<path fill="#7C3AED" d="M480.372,822.138
					c-14.23,0.001-27.104-5.622-37.217-16.479l-173.828-186.62c-15.839-17.004-22.546-44.57-18.402-75.629
					c5.621-42.124,29.529-81.93,60.908-101.41l257.51-159.858l0.803,1.294l-0.803-1.294c23.813-14.783,48.043-15.616,66.473-2.287
					c24.378,17.63,33.587,56.112,23.461,98.039l-83.681,346.478c-11.347,46.984-44.262,86.351-80.039,95.734
					C490.372,821.466,485.29,822.138,480.372,822.138z M570.949,284.73l-257.51,159.858c-30.637,19.019-53.991,57.967-59.495,99.225
					c-4.023,30.153,2.395,56.815,17.611,73.15l173.828,186.62c12.81,13.751,30.352,18.573,49.4,13.578
					c34.743-9.112,66.756-47.561,77.852-93.504l83.681-346.478c9.834-40.721,1.088-77.954-22.285-94.856
					C616.654,269.754,593.66,270.632,570.949,284.73L570.949,284.73z"/>
			</g>
		</g>
		<g>
			<g>
				
					
				<path fill="#7C3AED" d="M504.376,839.766
					c-13.761,0.001-26.618-4.736-37.516-14.043L256.378,645.976c-19.065-16.282-29.157-44.401-27.687-77.15
					c2.013-44.843,24.615-88.933,57.582-112.324l269.554-191.256l0.881,1.242l-0.881-1.242
					c25.769-18.282,53.157-20.935,75.146-7.276c27.615,17.152,40.403,55.237,33.372,99.393l-59.073,371.004
					c-7.943,49.878-39.005,92.87-77.296,106.978C519.954,838.301,512.024,839.765,504.376,839.766z M600.748,252.406
					c-14,0-28.821,5.151-43.159,15.324L288.036,458.986c-32.23,22.868-54.33,66.037-56.302,109.977
					c-1.428,31.804,8.277,59.03,26.623,74.697l210.481,179.746c16.081,13.733,36.712,16.957,58.086,9.081
					c37.29-13.741,67.567-55.776,75.341-104.6l59.073-371.004c6.834-42.923-5.416-79.833-31.972-96.327
					C620.591,255.107,610.884,252.406,600.748,252.406z"/>
			</g>
		</g>
		<g>
			<g>
				
					
				<path fill="#7C3AED" d="M532.078,856.084
					c-13.117,0-25.714-3.847-37.052-11.507L244.643,675.401c-22.762-15.38-36.647-44.08-38.097-78.743
					c-1.968-47.053,18.776-95.179,52.849-122.609l279.843-225.286c27.589-22.21,58.361-27.093,84.427-13.397
					c30.726,16.144,47.701,54.463,44.3,100.002l-29.458,394.462c-3.841,51.431-32.985,98.851-72.52,117.998
					C554.61,853.34,543.158,856.084,532.078,856.084z M540.192,249.949l0.955,1.186L261.304,476.421
					c-33.345,26.844-53.645,73.99-51.715,120.11c1.409,33.687,14.807,61.513,36.759,76.345l250.384,169.177
					c19.975,13.496,44.1,14.575,67.927,3.036c38.591-18.691,67.047-65.1,70.81-115.484l29.458-394.464
					c3.31-44.31-13.045-81.509-42.679-97.079c-24.941-13.105-54.501-8.34-81.1,13.073L540.192,249.949z"/>
			</g>
		</g>
		<g>
			<g>
				
					
				<path fill="#7C3AED" d="M563.665,870.697
					c-12.261,0-24.3-2.97-35.652-8.944L234.484,707.321c-27.02-14.216-45.212-43.498-49.913-80.34
					c-6.217-48.728,12.145-100.569,46.777-132.072l287.936-261.914c29.185-26.547,63.521-34.135,94.201-20.812
					c34.134,14.82,55.728,53.057,56.356,99.788l5.593,416.346c0.714,53.169-25.019,103.582-65.559,128.435
					C594.74,866.029,579.029,870.697,563.665,870.697z M520.31,234.121l1.025,1.126L233.398,497.162
					c-33.921,30.855-51.901,81.66-45.805,129.434c4.573,35.842,22.181,64.283,48.309,78.03l293.529,154.432
					c24.587,12.935,52.593,11.195,78.852-4.903c39.643-24.303,64.806-73.681,64.106-125.796l-5.593-416.347
					c-0.611-45.516-21.503-82.698-54.523-97.035c-29.537-12.824-62.681-5.434-90.938,20.271L520.31,234.121z"/>
			</g>
		</g>
		<g>
			<g>
				
					
				<path fill="#7C3AED" d="M598.862,883.012
					c-11.083,0-22.101-2.074-32.694-6.282L226.311,741.716c-31.933-12.686-55.056-42.505-63.439-81.811
					c-10.799-50.635,4.321-104.492,39.458-140.554l293.349-301.066c30.001-30.792,68.987-41.887,104.285-29.673
					c38.469,13.309,64.521,50.189,69.69,98.653l46.508,436.079c5.702,53.46-16.424,107.603-56.368,137.935
					C640.889,875.633,619.764,883.012,598.862,883.012z M496.769,219.348l1.091,1.063L204.511,521.477
					c-34.436,35.342-49.25,88.142-38.661,137.793c8.167,38.294,30.613,67.313,61.584,79.616l339.857,135.013
					c29.559,11.744,62.604,6.256,90.659-15.045c39.113-29.7,60.773-82.764,55.183-135.186l-46.508-436.079
					c-5.041-47.26-30.333-83.184-67.657-96.098c-34.15-11.814-71.947-1.005-101.108,28.92L496.769,219.348z"/>
			</g>
		</g>
		<g>
			<g>
				
					
				<path fill="#7C3AED" d="M638.182,892.897
					c-9.463,0-18.967-1.309-28.354-3.971L220.572,778.528c-37.59-10.661-66.383-40.899-78.995-82.958
					c-15.371-51.258-3.49-107.942,31.006-147.931l295.547-342.618c30.809-35.714,73.581-50.71,114.413-40.114
					c42.715,11.084,74.308,47.147,84.51,96.468l93.71,453.016c11.165,53.974-6.088,110-45.025,146.216
					C692.987,881.768,665.769,892.897,638.182,892.897z M469.282,206.016l1.153,0.994L174.889,549.628
					c-33.823,39.209-45.469,94.795-30.395,145.066c12.308,41.043,40.34,70.531,76.909,80.903l389.256,110.398
					c35.705,10.126,73.247,0.06,103.004-27.619c38.162-35.495,55.067-90.431,44.117-143.369l-93.71-453.017
					c-9.962-48.159-40.726-83.35-82.292-94.136c-39.689-10.299-81.309,4.339-111.343,39.156L469.282,206.016z"/>
			</g>
		</g>
		<g>
			<g>
				
					
				<path fill="#7C3AED" d="M681.329,899.699
					c-7.285,0-14.641-0.658-22.015-1.996l-441.553-80.054c-44.069-7.99-79.388-38.427-96.9-83.505
					c-19.956-51.37-11.704-110.424,21.536-154.116l293.957-386.392l1.212,0.922l-1.212-0.922
					c31.05-40.815,77.484-60.341,124.223-52.223c47.47,8.243,85.26,43.029,101.088,93.051l147.595,466.448
					c16.812,53.131,4.666,111.799-31.701,153.107C751.44,883.69,717.246,899.699,681.329,899.699z M539.725,142.652
					c-38.451,0-75.123,18.882-100.947,52.827L144.82,581.871c-32.603,42.856-40.695,100.78-21.12,151.169
					c17.12,44.069,51.601,73.816,94.604,81.613l441.553,80.054c42.656,7.735,84.721-7.832,115.418-42.7
					c35.665-40.513,47.575-98.057,31.083-150.177L658.763,235.383c-15.479-48.917-52.379-82.924-98.706-90.97
					C553.259,143.232,546.463,142.652,539.725,142.652z"/>
			</g>
		</g>
		<g>
			<g>
				
					
				<path fill="#7C3AED" d="M727.298,902.908
					c-4.111,0-8.237-0.18-12.384-0.542l-496.5-43.438c-50.673-4.434-94.581-35.503-117.454-83.113
					c-24.875-51.775-20.702-111.236,11.165-159.059l287.959-432.15l1.267,0.844l-1.267-0.844
					c30.619-45.953,80.426-70.63,133.251-66.007c52.818,4.621,97.589,37.572,119.765,88.143L861.642,682.33
					c23.077,52.63,16.863,111.913-16.625,158.582C816.744,880.313,773.421,902.905,727.298,902.908z M520.779,121.094
					c-47.053,0-90.556,23.774-118.16,65.2L114.659,618.445c-31.264,46.918-35.358,105.255-10.954,156.051
					c22.402,46.629,65.384,77.059,114.974,81.398l496.499,43.438c49.584,4.329,97.202-18.164,127.363-60.195
					c32.854-45.785,38.951-103.947,16.31-155.583L650.31,207.965c-21.721-49.536-65.549-81.81-117.241-86.333
					C528.952,121.273,524.85,121.094,520.779,121.094z"/>
			</g>
		</g>
		<g>
			<g>
				
					
				<path fill="#7C3AED" d="M776.887,902.152H223.113
					c-58.833,0-111.52-30.419-140.937-81.37c-29.416-50.951-29.416-111.787,0.001-162.738l276.887-479.582
					C388.478,127.514,441.171,97.093,500,97.093c0.003,0-0.004,0,0,0c58.833,0.001,111.519,30.419,140.935,81.369l276.888,479.582
					c29.417,50.951,29.417,111.788,0,162.739C888.406,871.734,835.72,902.152,776.887,902.152z M360.382,179.223l1.319,0.762
					L84.814,659.567c-28.866,49.997-28.866,109.695,0,159.692c28.866,49.998,80.567,79.847,138.299,79.847h553.774
					c57.732,0,109.432-29.849,138.297-79.846c28.866-49.997,28.866-109.696,0.001-159.693L638.298,179.985
					c-28.865-49.997-80.566-79.846-138.297-79.847c-57.733,0-109.433,29.849-138.299,79.847L360.382,179.223z"/>
			</g>
		</g>
	</g>
</g>
</svg>
