<?xml version="1.0" encoding="utf-8"?>
<!-- Generator: Adobe Illustrator 27.5.0, SVG Export Plug-In . SVG Version: 6.00 Build 0)  -->
<svg version="1.1" xmlns="http://www.w3.org/2000/svg" xmlns:xlink="http://www.w3.org/1999/xlink" x="0px" y="0px"
	 viewBox="0 0 750 500" style="enable-background:new 0 0 750 500;" xml:space="preserve">

<g id="OBJECTS">
	<g>
		<defs>
			<rect id="SVGID_1_" width="750" height="500"/>
		</defs>
		<clipPath id="SVGID_00000013895802087277605930000004617388531496880803_">
			<use xlink:href="#SVGID_1_"  style="overflow:visible;"/>
		</clipPath>
		<g style="clip-path:url(#SVGID_00000013895802087277605930000004617388531496880803_);">
			
				
			
				<path style="fill:none;stroke:#7C3AED;stroke-width:2;stroke-miterlimit:10;" d="
				M390.797,213.595c-0.18-2.551,1.749-4.015,4.057-2.665c0.965,0.535,1.776,1.331,2.779,1.79c1.988,0.909,4.58,0.196,5.822-1.603
				c0.875-1.266,1.104-2.922,2.108-4.088c2.017-2.462,6.327-1.243,6.743,1.92c0.237,1.505-0.42,2.985-0.824,4.454
				c-1.793,6.961,5.515,3.231,5.192,9.934c-0.454,7.977-7.965,0.378-10.895,8.152c-0.415,1.337-0.334,2.783-0.691,4.136
				c-0.96,4.445-7.277,6.198-9.623,1.937c-1.227-2.369-0.386-5.877-2.609-7.352c-2.006-1.331-5.024,0.201-6.985-1.195
				c-3.29-3.069,0.54-7.042,4.055-7.641C394.247,220.779,390.741,217.35,390.797,213.595z"/>
			
				
			
				<path style="fill:none;stroke:#7C3AED;stroke-width:3.1429;stroke-miterlimit:10;" d="
				M374.472,201.929c-0.525-6.446,3.838-10.304,9.885-7.277c2.495,1.249,4.664,3.12,7.26,4.143
				c5.142,2.027,11.591-0.125,14.484-4.835c2.037-3.316,2.429-7.498,4.769-10.608c4.839-6.432,15.708-3.976,17.286,3.935
				c0.754,3.778-0.688,7.587-1.477,11.359c-3.725,17.792,14.438,7.413,14.455,24.381c0.021,20.204-20.657,1.852-26.408,22.058
				c-0.969,3.404-0.545,7.056-1.185,10.538c-2.077,11.309-17.668,16.716-24.037,6.194c-3.493-5.772-1.769-14.787-7.583-18.211
				c-5.245-3.089-12.887,1.519-17.801-2.073c-9.186-6.714,0.38-17.996,9.205-19.843
				C384.121,219.429,375.243,211.395,374.472,201.929z"/>
			
				
			
				<path style="fill:none;stroke:#7C3AED;stroke-width:3.2857;stroke-miterlimit:10;" d="
				M358.596,188.776c-0.72-10.364,6.361-16.477,16.017-11.5c3.983,2.053,7.433,5.1,11.583,6.794c8.221,3.355,18.62,0.02,23.357-7.49
				c3.335-5.287,4.045-11.998,7.863-16.949c7.896-10.239,25.307-6.086,27.691,6.651c1.139,6.084-1.25,12.174-2.59,18.217
				c-6.324,28.507,23.05,12.184,22.753,39.439c-0.353,32.454-33.217,2.579-42.841,34.927c-1.621,5.449-1.011,11.324-2.105,16.904
				c-3.553,18.126-28.7,26.513-38.729,9.489c-5.501-9.338-2.558-23.786-11.832-29.397c-8.365-5.062-20.728,2.193-28.554-3.67
				c-14.627-10.96,0.955-28.899,15.166-31.697C373.759,217.071,359.652,203.997,358.596,188.776z"/>
			
				
			
				<path style="fill:none;stroke:#7C3AED;stroke-width:3.4286;stroke-miterlimit:10;" d="
				M343.424,174.505c-0.654-14.298,9.297-22.488,22.434-15.318c5.42,2.958,10.071,7.266,15.732,9.734
				c11.214,4.888,25.645,0.633,32.414-9.557c4.765-7.174,5.962-16.394,11.381-23.088c11.208-13.845,35.053-7.56,37.923,10.061
				c1.37,8.416-2.117,16.728-4.16,25.007c-9.637,39.058,31.35,17.531,30.056,55.06c-1.542,44.687-45.834,2.473-60.142,46.712
				c-2.41,7.453-1.761,15.564-3.449,23.213c-5.483,24.85-40.391,35.584-53.65,11.81c-7.273-13.04-2.75-32.844-15.34-40.874
				c-11.357-7.244-28.621,2.346-39.208-5.984c-19.79-15.57,2.255-39.772,21.918-43.164
				C363.389,213.969,344.385,195.503,343.424,174.505z"/>
			
				
			
				<path style="fill:none;stroke:#7C3AED;stroke-width:3.5714;stroke-miterlimit:10;" d="
				M329.02,159.163c-0.328-18.234,12.638-28.314,29.116-18.718c6.799,3.959,12.571,9.611,19.694,12.954
				c14.111,6.622,32.642,1.713,41.624-11.027c6.323-8.969,8.173-20.67,15.312-29.005c14.765-17.238,44.915-8.39,47.947,14.156
				c1.448,10.768-3.288,21.231-6.183,31.704c-13.656,49.407,39.311,23.438,36.335,71.193c-3.544,56.865-58.466,1.529-78.255,57.371
				c-3.334,9.408-2.793,19.761-5.213,29.445c-7.863,31.458-52.705,43.895-68.753,13.146c-8.802-16.867-2.341-41.931-18.093-52.604
				c-14.21-9.629-36.538,1.976-49.728-9.008c-24.656-20.532,4.278-50.578,29.444-54.203
				C353.054,210.135,329.501,185.943,329.02,159.163z"/>
			
				
			
				<path style="fill:none;stroke:#7C3AED;stroke-width:3.7143;stroke-miterlimit:10;" d="
				M315.435,142.79c0.26-22.161,16.372-33.937,36.043-21.686c8.115,5.054,14.923,12.128,23.455,16.446
				c16.901,8.553,39.588,3.259,50.958-11.892c8.005-10.666,10.673-24.813,19.646-34.679c18.557-20.406,54.86-8.57,57.729,18.926
				c1.37,13.132-4.76,25.67-8.654,38.288c-18.371,59.521,46.905,29.888,41.567,87.788c-6.357,68.944-71.073-0.253-97.125,66.864
				c-4.389,11.307-4.106,23.903-7.395,35.578c-10.686,37.927-65.604,51.417-83.987,13.487c-10.083-20.805-1.331-51.017-20.079-64.55
				c-16.913-12.208-44.453,1.082-60.078-12.736c-29.208-25.829,7.021-61.282,37.721-64.777
				C342.79,205.571,315.053,175.335,315.435,142.79z"/>
			
				
			
				<path style="fill:none;stroke:#7C3AED;stroke-width:3.8571;stroke-miterlimit:10;" d="
				M302.723,125.425c1.108-26.064,20.491-39.336,43.191-24.209c9.365,6.241,17.118,14.81,27,20.199
				c19.576,10.675,46.459,5.268,60.385-12.146c9.804-12.26,13.456-28.807,24.37-40.09c22.572-23.337,64.856-8.096,67.236,24.357
				c1.137,15.5-6.53,30.03-11.568,44.734c-23.769,69.365,54.104,36.863,45.727,104.792c-9.975,80.887-83.612-2.871-116.694,75.152
				c-5.573,13.144-5.696,27.974-9.989,41.592c-13.945,44.237-79.048,58.119-99.303,12.827c-11.11-24.844,0.281-60.073-21.287-76.674
				c-19.457-14.976-52.341-0.336-70.224-17.16c-33.43-31.447,10.48-71.848,46.726-74.848
				C332.635,200.281,301.095,163.703,302.723,125.425z"/>
			
				
			
				<path style="fill:none;stroke:#7C3AED;stroke-width:4;stroke-miterlimit:10;" d="
				M290.933,107.112c2.216-29.931,24.985-44.492,50.54-26.278c10.543,7.514,19.149,17.648,30.318,24.202
				c22.124,12.983,53.233,7.736,69.875-11.785c11.717-13.743,16.514-32.639,29.471-45.219c26.799-26.02,74.87-6.967,76.435,30.438
				c0.747,17.864-8.594,34.296-14.919,51.021c-29.839,78.904,60.882,44.344,48.795,122.152
				c-14.393,92.651-96.041-6.322-136.901,82.201c-6.884,14.913-7.561,31.962-12.989,47.465
				c-17.634,50.364-92.997,63.975-114.652,11.162c-11.878-28.969,2.494-69.067-21.707-88.936
				c-21.832-17.924-60.174-2.278-80.131-22.269c-37.305-37.369,14.647-82.239,56.435-84.379
				C322.623,194.27,287.678,151.068,290.933,107.112z"/>
			
				
			
				<path style="fill:none;stroke:#7C3AED;stroke-width:4.1429;stroke-miterlimit:10;" d="
				M280.112,87.895c3.582-33.748,29.839-49.386,58.067-27.88c11.646,8.872,21.008,20.636,33.394,28.445
				c24.538,15.47,59.887,10.66,79.399-10.804c13.737-15.111,19.839-36.295,34.937-50.047c31.225-28.443,84.871-5.179,85.292,37.153
				c0.201,20.218-10.947,38.452-18.698,57.128c-36.564,88.104,67.214,52.309,50.752,139.815
				c-19.603,104.197-108.32-10.602-157.687,87.977c-8.317,16.607-9.696,35.852-16.389,53.179
				c-21.744,56.287-107.41,68.958-129.984,8.488c-12.382-33.169,5.305-77.971-21.333-101.299
				c-24.03-21.044-67.928-4.741-89.764-28.054c-40.817-43.578,19.514-92.42,66.821-93.335
				C312.791,187.543,274.851,137.459,280.112,87.895z"/>
			
				
			
				<path style="fill:none;stroke:#7C3AED;stroke-width:4.2857;stroke-miterlimit:10;" d="
				M270.306,67.823c5.204-37.504,35.043-54,65.749-29.008c12.668,10.311,22.686,23.764,36.218,32.916
				c26.807,18.13,66.397,14.033,88.923-9.202c15.86-16.358,23.424-39.761,40.751-54.554c35.838-30.598,94.824-2.733,93.777,44.485
				c-0.5,22.551-13.585,42.485-22.897,63.033c-43.93,96.933,73.075,60.738,51.582,157.725
				c-25.593,115.487-120.406-15.705-178.988,92.451c-9.869,18.221-12.096,39.63-20.181,58.712
				c-26.263,61.986-122.243,73.045-145.247,4.807c-12.619-37.43,8.71-86.755-20.157-113.722
				c-26.041-24.327-75.576-7.721-99.089-34.499c-43.953-50.056,25.073-102.357,77.856-101.682
				C303.176,180.11,262.663,122.902,270.306,67.823z"/>
			
				
			
				<path style="fill:none;stroke:#7C3AED;stroke-width:4.4286;stroke-miterlimit:10;" d="
				M261.56,46.944c7.079-41.185,40.583-58.317,73.563-29.652C348.729,29.117,359.3,44.315,373.9,54.893
				c28.924,20.955,72.741,17.849,98.42-6.978c18.078-17.478,27.257-43.024,46.899-58.725
				c40.625-32.473,104.697,0.369,101.857,52.418c-1.356,24.859-16.502,46.38-27.507,68.714
				c-51.918,105.359,78.441,69.608,51.271,175.826c-32.353,126.48-132.259-21.62-200.74,95.595
				c-11.537,19.747-14.758,43.284-24.357,64.044c-31.183,67.439-137.452,76.213-160.393,0.12
				c-12.584-41.739,12.703-95.388-18.177-126.165c-27.858-27.764-83.092-11.214-108.074-41.592
				c-46.698-56.785,31.31-112.015,89.511-109.387C293.811,171.98,251.164,107.428,261.56,46.944z"/>
			
				
			
				<path style="fill:none;stroke:#7C3AED;stroke-width:4.5714;stroke-miterlimit:10;" d="
				M253.914,25.309c9.204-44.778,46.445-62.319,81.485-29.806c14.456,13.413,25.473,30.405,41.061,42.49
				c30.88,23.939,78.898,22.1,107.856-4.131c20.387-18.467,31.331-46.072,53.365-62.54c45.572-34.061,114.459,4.124,109.504,60.932
				c-2.366,27.131-19.691,50.124-32.518,74.152c-60.51,113.35,83.29,78.894,49.809,194.064
				c-39.868,137.138-143.838-28.34-222.878,97.386c-13.316,21.181-17.674,46.801-28.907,69.158
				c-36.491,72.627-152.993,78.443-175.372-5.57c-12.275-46.083,17.279-103.842-15.39-138.59
				c-29.472-31.346-90.45-15.214-116.685-49.316c-49.04-63.746,38.214-121.36,101.755-116.418
				C284.732,163.165,240.398,91.071,253.914,25.309z"/>
			
				
			
				<path style="fill:none;stroke:#7C3AED;stroke-width:4.7143;stroke-miterlimit:10;" d="
				M247.409,2.972c11.574-48.271,52.612-65.99,89.49-29.463c15.214,15.069,26.57,33.901,43.059,47.568
				c32.666,27.075,84.845,26.779,117.202-0.665c22.78-19.321,35.635-48.892,60.131-65.985
				c50.665-35.353,124.075,8.529,116.686,70.006c-3.529,29.362-23.145,53.702-37.917,79.325
				c-69.684,120.876,87.601,88.572,47.186,212.379c-48.124,147.423-155.103-35.85-245.336,97.8
				c-15.201,22.516-20.838,50.167-33.821,74.033c-42.175,77.529-168.82,79.717-190.132-12.254
				c-11.69-50.448,22.43-112.087-11.796-150.955c-30.876-35.064-97.627-19.714-124.891-57.654
				c-50.965-70.92,45.771-130.358,114.556-122.744C275.974,153.678,230.411,73.865,247.409,2.972z"/>
			
				
			
				<path style="fill:none;stroke:#7C3AED;stroke-width:4.8571;stroke-miterlimit:10;" d="
				M242.078-20.012c14.186-51.652,59.071-69.314,97.555-28.618c15.877,16.789,27.459,37.5,44.761,52.821
				c34.275,30.353,90.56,31.875,126.426,3.419c25.25-20.034,40.157-51.473,67.179-69.043
				c55.889-36.34,133.514,13.576,123.376,79.619c-4.842,31.542-26.857,57.101-43.692,84.214
				c-79.419,127.906,91.353,98.616,43.396,230.717c-57.104,157.298-166.014-44.137-268.047,96.821
				c-17.189,23.747-24.244,53.37-39.088,78.651c-48.221,82.127-184.885,80.018-204.626-19.925
				c-10.828-54.821,28.146-120.095-7.396-163.222c-32.062-38.906-104.595-24.706-132.661-66.586
				c-52.464-78.285,53.963-138.977,127.88-128.338C267.568,143.533,221.245,55.846,242.078-20.012z"/>
			
				
			
				<path style="fill:none;stroke:#7C3AED;stroke-width:5;stroke-miterlimit:10;" d="
				M237.942-43.58c17.034-54.909,65.804-72.275,105.654-27.268c16.44,18.568,28.137,41.192,46.158,58.236
				c35.699,33.765,96.024,37.378,135.497,8.114c27.79-20.602,44.888-53.803,74.492-71.7c61.231-37.017,142.744,19.26,129.546,89.748
				c-6.304,33.665-30.818,60.308-49.831,88.801c-89.693,134.412,94.526,109,38.436,249.018
				c-66.789,166.726-176.532-53.185-290.941,94.432c-19.274,24.869-27.884,56.397-44.697,82.995
				c-54.616,86.402-201.143,79.333-218.803-28.572c-9.687-59.188,34.417-127.837-2.192-175.35
				c-33.025-42.862-111.331-30.182-139.965-76.094c-53.525-85.823,62.775-147.183,141.692-133.171
				C259.533,132.751,212.925,37.06,237.942-43.58z"/>
			
				
			
				<path style="fill:none;stroke:#7C3AED;stroke-width:5.1429;stroke-miterlimit:10;" d="
				M235.054-67.684c20.113-58.029,72.795-74.861,113.764-25.408c16.902,20.402,28.597,44.968,47.24,63.798
				c36.932,37.303,101.214,43.276,144.387,13.416c30.395-21.022,49.814-55.871,82.051-73.942
				c66.675-37.375,151.733,25.57,135.169,100.368c-7.911,35.723-35.02,63.31-56.32,93.065
				c-100.48,140.367,97.103,119.695,32.304,267.226c-77.159,175.672-186.619-62.978-313.952,90.621
				c-21.451,25.877-31.75,59.238-50.634,87.047c-61.344,90.337-217.544,77.649-232.615-38.18
				c-8.267-63.535,41.23-135.285,3.81-187.299c-33.758-46.923-117.81-36.13-146.772-86.155
				C-60.651,143.362,65.675,81.926,149.444,99.655C251.923,121.343,205.515,17.539,235.054-67.684z"/>
			
				
			
				<path style="fill:none;stroke:#7C3AED;stroke-width:5.2857;stroke-miterlimit:10;" d="
				M233.446-92.264c23.417-61.001,80.024-77.056,121.859-23.038c17.259,22.286,28.835,48.816,48,69.492
				C441.272-4.851,509.416,3.749,556.368-26.493c33.055-21.291,54.923-57.668,89.835-75.755
				c72.206-37.41,160.45,32.498,140.22,111.454c-9.662,37.709-39.453,66.095-63.143,96.99
				c-111.755,145.743,99.066,130.674,25.002,285.282c-88.191,184.1-196.237-73.495-337.008,85.379
				c-23.715,26.765-35.834,61.879-56.887,90.789c-68.39,93.913-234.039,74.957-246.013-48.736
				c-6.568-67.849,48.575-142.412,10.603-199.029C84.723,268.804-5.03,277.34-34.077,223.133
				C-88.373,121.805,48.104,60.897,136.558,82.68C244.77,109.327,199.054-2.676,233.446-92.264z"/>
			
				
			
				<path style="fill:none;stroke:#7C3AED;stroke-width:5.4286;stroke-miterlimit:10;" d="
				M233.143-117.258c26.94-63.813,87.475-78.848,129.914-20.156c17.508,24.214,28.847,52.727,48.431,75.302
				c38.796,44.72,110.695,56.21,161.497,25.808c35.765-21.404,60.204-59.182,97.824-77.127
				c77.808-37.116,168.863,40.031,144.674,122.979c-11.553,39.616-44.107,68.651-70.285,100.557
				c-123.491,150.515,100.4,141.907,16.534,303.13c-99.864,191.976-205.348-84.717-360.04,78.697
				c-26.061,27.53-40.125,64.311-63.44,94.206c-75.737,97.114-250.581,71.25-258.951-60.222
				c-4.591-72.115,56.435-149.19,18.18-210.502C62.97,260.105-32.422,266.016-61.305,207.57
				C-115.296,98.318,31.428,38.549,124.385,64.714C238.105,96.724,193.579-23.539,233.143-117.258z"/>
			
				
			
				<path style="fill:none;stroke:#7C3AED;stroke-width:5.5714;stroke-miterlimit:10;" d="
				M234.17-142.603c30.673-66.455,95.128-80.225,137.904-16.762c17.647,26.182,28.629,56.69,48.526,81.213
				c39.415,48.58,114.948,63.218,169.658,32.88c38.517-21.359,65.642-60.406,105.997-78.048
				c83.465-36.489,176.942,48.157,148.507,134.916c-13.581,41.436-48.972,70.967-77.729,103.751
				c-135.66,154.658,101.091,153.364,6.905,320.711c-112.151,199.268-213.918-96.621-382.979,70.574
				c-28.481,28.167-44.616,66.521-70.279,97.281c-83.368,99.924-267.12,66.52-271.38-72.618
				c-2.337-76.32,64.796-155.594,26.531-221.677C41.31,250.002-59.639,252.923-88.108,190.193
				C-141.323,72.932,15.713,14.919,112.974,45.79C231.959,83.555,189.123-45.005,234.17-142.603z"/>
			
				
			
				<path style="fill:none;stroke:#7C3AED;stroke-width:5.7143;stroke-miterlimit:10;" d="
				M236.55-168.237c34.61-68.915,102.964-81.176,145.803-12.859c17.674,28.185,28.178,60.693,48.278,87.209
				C470.45-41.36,549.481-23.32,608.148-53.367c41.303-21.154,71.225-61.329,114.334-78.505
				C811.644-167.396,907.139-75.01,874.18,15.363c-15.741,43.163-54.037,73.03-85.459,106.555
				c-148.233,158.149,101.125,165.014-3.874,337.967c-125.028,205.944-221.91-109.182-405.752,61.009
				c-30.971,28.672-49.295,68.5-77.389,100C210.441,723.224,18.1,681.661,18.449,534.993
				c0.191-80.451,73.642-161.598,35.643-232.518c-34.28-63.978-140.687-64.41-168.486-131.458
				C-166.357,45.685,1.027-9.949,102.376,25.94C226.361,69.844,185.72-67.026,236.55-168.237z"/>
			
				
			
				<path style="fill:none;stroke:#7C3AED;stroke-width:5.8571;stroke-miterlimit:10;" d="
				M240.3-194.095c38.743-71.183,110.962-81.69,153.588-8.449c17.586,30.216,27.491,64.725,47.683,93.272
				c40,56.553,122.384,78.242,185.046,48.718c44.115-20.786,76.937-61.945,122.812-78.49
				c94.882-34.219,191.978,66.13,154.225,159.908c-18.031,44.789-59.29,74.831-93.457,108.953
				c-161.18,160.967,100.49,176.828-15.793,354.843c-138.464,211.972-229.292-122.375-428.29,50.005
				c-33.525,29.04-54.152,70.238-84.753,102.349C181.953,741.328-18.627,691.002-13.172,536.963
				c2.992-84.494,82.954-167.177,45.502-242.984c-33.786-68.387-145.533-72.532-172.405-143.919
				C-190.306,16.617-12.568-36.01,92.637,5.201C221.34,55.616,183.401-89.553,240.3-194.095z"/>
			
				
			
				<path style="fill:none;stroke:#7C3AED;stroke-width:6;stroke-miterlimit:10;" d="
				M245.437-220.111c39.901-75.018,120.024-82.247,161.232-3.534c17.759,32.065,26.565,68.775,46.735,99.388
				c39.956,60.645,125.532,86.225,192.216,57.458c46.947-20.253,82.576-62.842,131.408-77.994
				c100.203-33.798,200.109,76.496,156.07,172.903c-19.853,46.565-64.447,76.653-101.703,110.931
				C658.22,303.505,929.78,327.261,802.557,510.323c-153.372,216.661-230.973-129.738-450.522,37.566
				c-35.252,30.328-58.454,72.477-92.354,104.313C154.305,760.457-54.494,698.511-45.484,537.162
				c7.179-88.351,92.714-172.306,56.095-253.039c-33.035-72.83-145.046-82.904-175.674-156.779
				C-203.63-17.085-25.749-61.455,83.804-16.389C215.981,43.034,177.666-115.329,245.437-220.111z"/>
		</g>
	</g>
</g>
</svg>
